<svg xmlns="http://www.w3.org/2000/svg" width="571.608" height="166.195" viewBox="0 0 571.608 166.195">
  <g id="Group_720" data-name="Group 720" transform="translate(-141.846 -507.384)">
    <path id="Path_642" data-name="Path 642" d="M259.591,585.95a51.5,51.5,0,0,1-15.706,10.71,58.742,58.742,0,0,0,.805-15.525,38.769,38.769,0,0,0,7.154-5.6l21.048-21.05A38.9,38.9,0,0,0,276.683,550c-7.216-26.647-30.092-46.716-57.653-51.486-.366.338-.75.642-1.1,1l-21.05,21.05a38.854,38.854,0,0,0,20.366,65.684,32.131,32.131,0,0,1-2.761,14.095,51.657,51.657,0,0,1-28.023-87.526l15.432-15.434H154.543a12.7,12.7,0,0,0-12.7,12.7V557.43l8.121-8.122A51.527,51.527,0,0,1,165.7,538.585a58.794,58.794,0,0,0-.821,15.531,38.8,38.8,0,0,0-7.164,5.611l-15.867,15.867V626a12.7,12.7,0,0,0,12.7,12.7h34.131l24.008-24.01A38.85,38.85,0,0,0,192.262,549a32.2,32.2,0,0,1,2.753-14.1A51.657,51.657,0,0,1,223.1,622.442L206.838,638.7h1.6A70.613,70.613,0,0,0,279,566.539Z" transform="translate(0 10)" fill="#00aac3"/>
    <g id="Group_720-2" data-name="Group 720" transform="translate(307.252 516.672)">
      <path id="Path_643" data-name="Path 643" d="M225.012,583.824c0-25.249,17.114-44.147,40.406-44.147,10.921,0,20.217,4.555,25.583,13.2V517.183c0-5.7,3.1-8.789,8.8-8.789h11.732c5.7,0,8.787,3.089,8.787,8.789v100.2c0,5.714-3.089,8.8-8.787,8.8H299.805c-5.7,0-8.8-3.089-8.8-8.8v-2.436c-5.366,8.469-14.662,13.039-25.583,13.039C242.126,627.987,225.012,609.072,225.012,583.824Zm66.482,0c-.159-12.051-7.339-21.348-18.737-21.348s-18.4,9.457-18.4,21.348,7,21.349,18.4,21.349S291.335,595.876,291.494,583.824Z" transform="translate(-225.012 -505.785)" fill="#161615"/>
      <path id="Path_644" data-name="Path 644" d="M276.481,568.27c0-25.249,17.114-44.147,40.247-44.147,11.08,0,20.378,4.555,25.742,13.2V534.71c0-5.7,3.1-8.8,8.8-8.8h11.732c5.7,0,8.789,3.1,8.789,8.8v67.12c0,5.714-3.089,8.8-8.789,8.8H351.274c-5.7,0-8.8-3.089-8.8-8.8v-2.436c-5.364,8.469-14.662,13.039-25.742,13.039C293.6,612.433,276.481,593.518,276.481,568.27Zm66.323,0c0-12.051-7.18-21.348-18.578-21.348-11.573,0-18.4,9.457-18.4,21.348s6.83,21.349,18.4,21.349C335.624,589.618,342.8,580.322,342.8,568.27Z" transform="translate(-174.116 -490.231)" fill="#161615"/>
      <path id="Path_645" data-name="Path 645" d="M329.191,521.092c0-7.816,5.7-14.01,16.78-14.01,11.239,0,16.955,6.193,16.955,14.01,0,7.975-6.193,14.01-16.955,14.01C335.384,535.1,329.191,529.067,329.191,521.092Zm2.118,97.59v-67.12c0-5.7,3.1-8.8,8.8-8.8h11.732c5.7,0,8.787,3.1,8.787,8.8v67.12c0,5.714-3.087,8.8-8.787,8.8H340.114C334.414,627.484,331.309,624.4,331.309,618.681Z" transform="translate(-121.993 -507.082)" fill="#161615"/>
      <path id="Path_646" data-name="Path 646" d="M349.7,594.984c-2.436-5.366.493-9.282,6.193-10.746l5.7-1.307c5.064-1.13,7,1.307,10.921,5.048,2.771,2.609,6.687,3.916,11.241,3.916,5.7,0,9.455-2.118,9.455-5.859,0-2.452-1.639-4.075-6.846-5.873l-9.932-3.584c-6.687-2.275-25.092-8.15-25.092-25.249,0-16.3,14.01-27.208,32.908-27.208,11.239,0,21.014,3.407,27.526,12.371,3.757,5.221.986,9.95-4.889,11.573l-5.2,1.466c-4.73,1.3-7.164-.318-10.587-3.089a10.239,10.239,0,0,0-7-2.452c-4.411,0-7,2.611-7,5.541s2.593,4.393,6.671,5.7l10.109,3.916c17.751,6.193,25.09,15.316,25.249,26.4,0,18.244-16.462,26.89-35.358,26.89C367.622,612.433,355.4,606.717,349.7,594.984Z" transform="translate(-102.57 -490.231)" fill="#161615"/>
      <path id="Path_647" data-name="Path 647" d="M400.614,635.983l14.328-33.242-30.629-67.453c-2.77-6.034,0-10.268,6.685-10.268h13.2c5.207,0,8.471,2.277,10.094,7.164l14.837,40.74,15.475-40.9c1.8-4.728,5.046-7,10.109-7H467.08c6.527,0,9.3,4.234,6.687,10.268L427.821,639.565c-1.959,4.728-5.221,6.687-10.268,6.687H407.459C400.773,646.251,398.163,642,400.614,635.983Z" transform="translate(-68.539 -489.344)" fill="#161615"/>
    </g>
  </g>
</svg>
